<svg width="75" height="75" viewBox="0 0 75 75" fill="none" xmlns="http://www.w3.org/2000/svg">
<path d="M26.0453 5.11248H46.3875L25.2703 67.6804C25.0533 68.3234 24.6401 68.882 24.0889 69.2778C23.5377 69.6736 22.8762 69.8866 22.1977 69.8867H6.3664C5.85227 69.8868 5.34551 69.7644 4.88805 69.5297C4.43059 69.2951 4.03557 68.9549 3.73568 68.5373C3.43579 68.1196 3.23965 67.6366 3.16348 67.1282C3.08731 66.6197 3.13331 66.1004 3.29765 65.6133L22.9719 7.31873C23.1888 6.67553 23.6021 6.11659 24.1535 5.72066C24.7048 5.32472 25.3665 5.11251 26.0453 5.11248Z" fill="url(#paint0_linear_47_2)"/>
<path d="M55.6055 47.0789H23.3477C23.0478 47.0785 22.7547 47.1685 22.5067 47.3371C22.2587 47.5057 22.0672 47.7451 21.9571 48.0241C21.8471 48.3031 21.8237 48.6087 21.8898 48.9012C21.956 49.1937 22.1087 49.4595 22.3281 49.664L43.0562 69.0109C43.6597 69.5738 44.4544 69.8868 45.2797 69.8867H63.5453L55.6055 47.0789Z" fill="#0078D4"/>
<path d="M26.0453 5.11245C25.3591 5.10982 24.69 5.32667 24.1358 5.73133C23.5816 6.13598 23.1713 6.70725 22.9648 7.36167L3.32187 65.5601C3.14647 66.049 3.0914 66.573 3.16132 67.0877C3.23125 67.6024 3.42412 68.0927 3.72361 68.5171C4.0231 68.9415 4.42041 69.2876 4.88192 69.526C5.34343 69.7644 5.85556 69.8881 6.375 69.8867H22.6148C23.2197 69.7786 23.785 69.5119 24.253 69.1139C24.7211 68.7158 25.0751 68.2007 25.2789 67.621L29.1961 56.0765L43.1883 69.1273C43.7746 69.6123 44.5102 69.8805 45.2711 69.8867H63.4687L55.4875 47.0789L32.2211 47.0843L46.4609 5.11245H26.0453Z" fill="url(#paint1_linear_47_2)"/>
<path d="M52.0273 7.31567C51.8107 6.67351 51.398 6.11551 50.8475 5.72026C50.297 5.32502 49.6363 5.11247 48.9586 5.11255H26.2875C26.9652 5.11259 27.6258 5.32519 28.1763 5.72041C28.7268 6.11564 29.1395 6.67358 29.3562 7.31567L49.0312 65.6125C49.1957 66.0998 49.2418 66.6192 49.1657 67.1278C49.0896 67.6364 48.8935 68.1196 48.5936 68.5373C48.2937 68.9551 47.8987 69.2955 47.4412 69.5303C46.9836 69.765 46.4768 69.8875 45.9625 69.8876H68.6344C69.1486 69.8874 69.6553 69.7648 70.1128 69.53C70.5702 69.2951 70.9651 68.9548 71.2649 68.537C71.5647 68.1193 71.7608 67.6361 71.8368 67.1276C71.9129 66.6191 71.8668 66.0997 71.7023 65.6125L52.0273 7.31567Z" fill="url(#paint2_linear_47_2)"/>
<defs>
<linearGradient id="paint0_linear_47_2" x1="33.4594" y1="9.91248" x2="12.3336" y2="72.3234" gradientUnits="userSpaceOnUse">
<stop stop-color="#114A8B"/>
<stop offset="1" stop-color="#0669BC"/>
</linearGradient>
<linearGradient id="paint1_linear_47_2" x1="40.0586" y1="38.9976" x2="35.1719" y2="40.65" gradientUnits="userSpaceOnUse">
<stop stop-opacity="0.3"/>
<stop offset="0.071" stop-opacity="0.2"/>
<stop offset="0.321" stop-opacity="0.1"/>
<stop offset="0.623" stop-opacity="0.05"/>
<stop offset="1" stop-opacity="0"/>
</linearGradient>
<linearGradient id="paint2_linear_47_2" x1="37.3711" y1="8.09224" x2="60.5609" y2="69.8743" gradientUnits="userSpaceOnUse">
<stop stop-color="#3CCBF4"/>
<stop offset="1" stop-color="#2892DF"/>
</linearGradient>
</defs>
</svg>
