<svg width="75" height="75" viewBox="0 0 75 75" fill="none" xmlns="http://www.w3.org/2000/svg">
<path d="M33.7353 0H49.3938V56.2846C41.3732 57.4744 35.4687 57.9425 29.0801 57.9425C9.95535 57.9268 0 51.2262 0 38.357C0 25.9576 10.5599 17.9103 26.9238 17.9103C29.4631 17.9103 31.3976 18.067 33.7353 18.5366V0ZM34.284 28.6797C32.45 28.2099 30.9388 28.0534 29.004 28.0534C21.0842 28.0534 16.5097 31.8421 16.5097 38.4817C16.5097 44.9461 20.8829 48.5155 28.9035 48.5155C30.6364 48.5155 32.0471 48.439 34.284 48.2041V28.6797Z" fill="white"/>
<path d="M75 19.4214V47.6023C75 57.3073 74.073 61.9743 71.3524 65.9981C68.8131 69.8664 65.4679 72.3058 58.5556 75L44.0257 69.6302C50.9379 67.1109 54.2831 64.8848 56.4195 61.4875C58.6561 58.0135 59.3615 53.9898 59.3615 43.4064V19.4217H75V19.4214ZM57.7835 0H73.442V12.4778H57.7835V0Z" fill="white"/>
</svg>
